<svg width="222" height="43" viewBox="0 0 222 43" fill="none" xmlns="http://www.w3.org/2000/svg">
<path d="M72.3301 30.5801C71.2301 32.4801 69.5401 33.9601 67.2801 35.0201C65.4301 35.8801 63.6201 36.2501 61.8301 36.1301C60.0501 36.0101 58.4401 35.4101 57.0001 34.3601C55.5601 33.3001 54.4001 31.8401 53.5401 29.9801C52.6701 28.1101 52.2801 26.2701 52.4001 24.4801C52.5101 22.6901 53.1001 21.0801 54.1601 19.6601C55.2201 18.2301 56.6301 17.1101 58.4101 16.2801C60.1601 15.4701 61.8801 15.1001 63.5801 15.2001C65.2801 15.2901 66.8001 15.8101 68.1501 16.7601C69.5001 17.7101 70.5601 19.0001 71.3201 20.6501C71.7501 21.5701 72.0401 22.4001 72.2101 23.1501L59.6601 29.0001C60.2001 30.0201 60.9701 30.6801 61.9901 30.9701C63.0001 31.2601 64.0801 31.1401 65.2301 30.6001C66.1001 30.2001 66.7701 29.6901 67.2401 29.0701C67.7101 28.4501 67.9401 27.8301 67.9301 27.2001L73.2701 24.7101C73.7601 26.7301 73.4601 28.6901 72.3601 30.6001L72.3301 30.5801ZM65.1501 22.0801C64.7101 21.2001 64.0401 20.6501 63.1401 20.4301C62.2401 20.2101 61.2901 20.3401 60.2801 20.8101C59.2601 21.2901 58.5401 21.9401 58.1301 22.7701C57.7201 23.6001 57.6901 24.4701 58.0601 25.3901L65.1601 22.0801H65.1501Z" fill="white"/>
<path d="M75.8201 5.91016H81.8601V35.5602H75.8201V5.91016Z" fill="white"/>
<path d="M104.75 30.5801C103.65 32.4801 101.96 33.9601 99.7001 35.0201C97.8501 35.8801 96.0401 36.2501 94.2501 36.1301C92.4701 36.0101 90.8601 35.4101 89.4201 34.3601C87.9801 33.3001 86.8201 31.8401 85.9601 29.9801C85.0901 28.1101 84.7001 26.2701 84.8201 24.4801C84.9301 22.6901 85.5201 21.0801 86.5801 19.6601C87.6401 18.2301 89.0501 17.1101 90.8301 16.2801C92.5801 15.4701 94.3001 15.1001 96.0001 15.2001C97.7001 15.2901 99.2201 15.8101 100.57 16.7601C101.92 17.7101 102.98 19.0001 103.74 20.6501C104.17 21.5701 104.46 22.4001 104.63 23.1501L92.0801 29.0001C92.6201 30.0201 93.3901 30.6801 94.4101 30.9701C95.4201 31.2601 96.5001 31.1401 97.6501 30.6001C98.5201 30.2001 99.1901 29.6901 99.6601 29.0701C100.13 28.4501 100.36 27.8301 100.35 27.2001L105.69 24.7101C106.18 26.7301 105.88 28.6901 104.78 30.6001L104.75 30.5801ZM97.5701 22.0801C97.1301 21.2001 96.4601 20.6501 95.5601 20.4301C94.6601 20.2101 93.7101 20.3401 92.7001 20.8101C91.6801 21.2901 90.9601 21.9401 90.5501 22.7701C90.1401 23.6001 90.1101 24.4701 90.4801 25.3901L97.5801 22.0801H97.5701Z" fill="white"/>
<path d="M111.87 16.0701L113.85 21.8701C114.31 23.1901 114.77 24.6201 115.21 26.1401C115.65 27.6701 115.94 28.6601 116.09 29.1301C116.26 28.6401 116.61 27.6001 117.15 26.0201C117.68 24.4401 118.18 23.0501 118.65 21.8701L120.87 16.0701H127.1L118.93 35.5701H113L105.4 16.0701H111.88H111.87Z" fill="white"/>
<path d="M148.91 16.0701V35.5701H143.11V33.3301C142.45 34.1901 141.53 34.8701 140.35 35.3801C139.17 35.8901 137.89 36.1401 136.51 36.1401C134.7 36.1401 133.09 35.7101 131.69 34.8601C130.29 34.0101 129.21 32.8201 128.45 31.2901C127.69 29.7601 127.31 27.9901 127.31 25.9601C127.31 23.9301 127.72 22.0001 128.53 20.4101C129.35 18.8201 130.5 17.5901 131.98 16.7101C133.46 15.8301 135.16 15.3901 137.06 15.3901C139.86 15.3901 141.99 16.2501 143.45 17.9601L143.85 16.0601H148.91V16.0701ZM141.53 29.3301C142.41 28.4201 142.85 27.2201 142.85 25.7101C142.85 24.2001 142.41 23.0701 141.53 22.1801C140.65 21.2901 139.51 20.8401 138.1 20.8401C136.69 20.8401 135.57 21.2901 134.72 22.2001C133.88 23.1101 133.45 24.2901 133.45 25.7601C133.45 27.2301 133.88 28.4101 134.73 29.3301C135.58 30.2401 136.7 30.7001 138.1 30.7001C139.5 30.7001 140.65 30.2501 141.53 29.3401V29.3301Z" fill="white"/>
<path d="M164.64 21.0503H160.97V35.5703H154.93V21.0503H151.34V16.0703H154.93V11.0303H160.97V16.0703H164.64V21.0503Z" fill="white"/>
<path d="M185.74 30.5801C184.64 32.4801 182.95 33.9601 180.69 35.0201C178.84 35.8801 177.03 36.2501 175.24 36.1301C173.46 36.0101 171.85 35.4101 170.41 34.3601C168.97 33.3001 167.81 31.8401 166.95 29.9801C166.08 28.1101 165.69 26.2701 165.81 24.4801C165.92 22.6901 166.51 21.0801 167.57 19.6601C168.63 18.2401 170.04 17.1101 171.82 16.2801C173.57 15.4701 175.29 15.1001 176.99 15.2001C178.69 15.2901 180.21 15.8101 181.56 16.7601C182.91 17.7101 183.97 19.0001 184.73 20.6501C185.16 21.5701 185.45 22.4001 185.62 23.1501L173.07 29.0001C173.61 30.0201 174.38 30.6801 175.4 30.9701C176.41 31.2601 177.49 31.1401 178.64 30.6001C179.51 30.2001 180.18 29.6901 180.65 29.0701C181.12 28.4501 181.35 27.8301 181.34 27.2001L186.68 24.7101C187.17 26.7301 186.87 28.6901 185.77 30.6001L185.74 30.5801ZM178.56 22.0801C178.12 21.2001 177.45 20.6501 176.55 20.4301C175.65 20.2101 174.7 20.3401 173.69 20.8101C172.67 21.2901 171.95 21.9401 171.54 22.7701C171.13 23.6001 171.1 24.4701 171.47 25.3901L178.57 22.0801H178.56Z" fill="white"/>
<path d="M209.78 5.91016V35.5602H204.76L204.42 33.2202C203.76 34.1502 202.84 34.8702 201.68 35.3702C200.51 35.8802 199.22 36.1302 197.8 36.1302C195.93 36.1302 194.26 35.7002 192.81 34.8302C191.35 33.9602 190.22 32.7502 189.4 31.2002C188.58 29.6502 188.18 27.8402 188.18 25.7902C188.18 23.7402 188.59 21.9402 189.4 20.3502C190.22 18.7602 191.35 17.5402 192.81 16.6802C194.27 15.8202 195.93 15.3902 197.8 15.3902C199.09 15.3902 200.25 15.5702 201.26 15.9302C202.27 16.2902 203.11 16.8102 203.77 17.5002V5.91016H209.78ZM202.4 29.3302C203.28 28.4202 203.72 27.2202 203.72 25.7102C203.72 24.2002 203.28 23.0702 202.4 22.1802C201.52 21.2902 200.38 20.8402 198.97 20.8402C197.56 20.8402 196.44 21.2902 195.59 22.2002C194.75 23.1102 194.32 24.2902 194.32 25.7602C194.32 27.2302 194.75 28.4102 195.6 29.3302C196.45 30.2402 197.57 30.7002 198.97 30.7002C200.37 30.7002 201.52 30.2502 202.4 29.3402V29.3302Z" fill="white"/>
<path d="M218.09 35.4702C219.824 35.4702 221.23 34.0644 221.23 32.3302C221.23 30.596 219.824 29.1902 218.09 29.1902C216.356 29.1902 214.95 30.596 214.95 32.3302C214.95 34.0644 216.356 35.4702 218.09 35.4702Z" fill="white"/>
<path d="M35.7601 29.6C37.7815 29.6 39.4201 27.9614 39.4201 25.94C39.4201 23.9187 37.7815 22.28 35.7601 22.28C33.7387 22.28 32.1001 23.9187 32.1001 25.94C32.1001 27.9614 33.7387 29.6 35.7601 29.6Z" fill="white"/>
<path d="M3.94986 15.3601C2.34986 15.3601 0.849864 14.3701 0.269865 12.7801C-0.470135 10.7501 0.579865 8.50008 2.60986 7.77008L23.3599 0.240079C25.3899 -0.499921 27.6399 0.550079 28.3699 2.58008C29.1099 4.61008 28.0599 6.86008 26.0299 7.59008L5.27986 15.1201C4.83986 15.2801 4.38986 15.3601 3.94986 15.3601Z" fill="white"/>
<path d="M3.94995 28.5501C2.36995 28.5501 0.889951 27.5901 0.289951 26.0301C-0.480049 24.0101 0.529951 21.7501 2.54995 20.9801L18.43 14.9001C20.45 14.1301 22.7099 15.1401 23.4799 17.1601C24.25 19.1801 23.24 21.4401 21.2199 22.2101L5.33995 28.2901C4.87995 28.4701 4.40995 28.5501 3.93995 28.5501H3.94995Z" fill="white"/>
<path d="M3.91998 42.0701C2.34998 42.0701 0.869978 41.1201 0.269978 39.5701C-0.510022 37.5601 0.479978 35.2901 2.49998 34.5001L24.54 25.9301C26.55 25.1501 28.82 26.1401 29.61 28.1601C30.39 30.1701 29.4 32.4401 27.38 33.2301L5.32998 41.8001C4.85998 41.9801 4.37998 42.0701 3.90998 42.0701H3.91998Z" fill="white"/>
</svg>
