<svg width="1282" height="230" viewBox="0 0 1282 230" fill="none" xmlns="http://www.w3.org/2000/svg">
<g style="mix-blend-mode:screen" clip-path="url(#clip0_13_61)">
<path d="M118.64 162.644L157.448 144.577C160.745 159.007 158.418 173.22 150.625 187.048L150.6 187.034C142.384 201.381 129.694 212.465 112.703 220.504C98.7792 226.887 85.1348 229.705 71.7555 228.764C58.3729 227.823 46.4085 223.359 35.6042 215.358C24.7974 207.356 16.0898 196.521 9.72405 182.35C3.34371 168.145 0.295742 154.708 0.998205 141.306C1.93947 127.89 6.16428 115.908 14.1415 105.096C22.1265 94.273 32.7064 86.0188 45.923 79.6349C59.1079 73.2664 72.0379 70.9146 84.7284 71.6209C97.405 72.3264 108.895 76.3215 118.982 83.3716C129.067 90.4201 137.051 100.058 142.698 112.549L142.703 112.56L142.708 112.571C145.86 119.113 147.931 125.21 149.133 130.656L54.5902 174.935L53.6505 175.375L54.125 176.298C58.2968 184.41 64.4641 189.36 72.3392 191.826L72.3529 191.83L72.3668 191.834C80.2613 194.058 88.845 193.051 97.5929 188.914C104.373 185.76 109.518 181.849 113.211 176.917C116.733 172.212 118.496 167.449 118.64 162.644ZM97.352 123.78L98.2837 123.346L97.8248 122.427C94.3794 115.524 89.1524 110.998 81.9071 109.491C74.7438 107.763 67.3707 108.771 59.5906 112.425C51.806 116.08 46.1528 121.229 42.702 127.649L42.6948 127.662L42.688 127.676C39.4572 134.149 39.2188 141.132 42.1822 148.307L42.5811 149.273L43.5285 148.832L97.352 123.78Z" stroke="#7362FF" stroke-width="2"/>
<path d="M178.903 1H222.63V224.467H178.903V1Z" stroke="#7362FF" stroke-width="2"/>
<path d="M365.133 162.405L403.941 144.338C407 157.725 405.218 170.925 398.722 183.804V183.773L396.855 187.034C388.638 201.381 375.949 212.465 358.957 220.504C345.034 226.887 331.389 229.704 318.01 228.764C304.627 227.823 292.663 223.358 281.859 215.358C271.052 207.356 262.344 196.521 255.979 182.35C249.597 168.144 246.552 154.472 247.49 141.076C248.43 127.656 252.655 115.672 260.634 104.857C268.619 94.0344 279.199 85.7802 292.416 79.3963C305.601 73.0277 318.53 70.676 331.221 71.3823C343.898 72.0878 355.388 76.0828 365.475 83.1329C375.559 90.1815 383.544 99.8189 389.19 112.31L389.195 112.321L389.201 112.332C392.353 118.874 394.424 124.971 395.625 130.417L301.083 174.696L300.143 175.136L300.618 176.059C304.789 184.172 310.957 189.122 318.832 191.587L318.846 191.591L318.859 191.595C326.754 193.82 335.338 192.813 344.086 188.675C350.865 185.521 356.011 181.61 359.703 176.678C363.226 171.973 364.989 167.21 365.133 162.405ZM343.606 123.78L344.538 123.346L344.079 122.427C340.634 115.524 335.407 110.998 328.162 109.491C320.998 107.763 313.625 108.771 305.845 112.425C298.06 116.08 292.407 121.229 288.956 127.649L288.949 127.662L288.943 127.676C285.712 134.149 285.473 141.132 288.437 148.307L288.836 149.273L289.783 148.832L343.606 123.78Z" stroke="#7362FF" stroke-width="2"/>
<path d="M461.042 224.705L404.185 78.3029H451.068L465.841 121.764L465.844 121.771L465.846 121.778C469.408 131.769 472.735 142.72 476.068 154.167C479.399 165.846 481.549 173.267 482.748 176.872L483.728 179.816L484.652 176.854C485.288 174.814 486.4 171.619 487.92 167.25C489.236 163.469 490.857 158.809 492.741 153.257C496.789 141.332 500.592 130.617 504.153 121.817L504.157 121.808L504.16 121.8L520.823 78.3029H565.79L504.703 224.705H461.042Z" stroke="#7362FF" stroke-width="2"/>
<path d="M695.514 78.0643H731.81V224.705H689.75V208.766V205.847L687.961 208.152C683.076 214.443 676.315 219.594 667.404 223.352C658.482 227.116 649.089 229 638.737 229C625.095 229 613.129 225.704 602.576 219.361C592.036 213.025 584.066 204.109 578.429 192.579C572.791 181.047 569.957 167.841 569.957 152.459C569.957 137.078 573.028 122.685 579.137 110.682C585.243 98.6816 593.924 89.5172 604.955 82.9334C615.976 76.3557 628.656 73.054 643.024 73.054C664.006 73.054 679.89 79.4209 690.848 92.2672L692.164 93.8109L692.586 91.8263L695.514 78.0643ZM677.563 123.134L677.557 123.128L677.55 123.121C670.682 116.241 661.848 112.568 650.883 112.568C639.939 112.568 631.081 115.99 624.43 123.147C617.793 130.289 614.636 139.617 614.636 150.788C614.636 161.972 618.038 171.534 624.668 178.668C631.306 185.811 640.155 189.485 650.883 189.485C661.59 189.485 670.678 186.064 677.563 178.92C684.442 171.782 687.845 162.45 687.845 150.788C687.845 139.114 684.434 130.264 677.563 123.134Z" stroke="#7362FF" stroke-width="2"/>
<path d="M851.364 114H824.5H823.5V115V224.467H779.774V115V114H778.774H752.624V78.0643H778.774H779.774V77.0643V39.89H823.5V77.3029V78.3029H824.5H851.364V114Z" stroke="#7362FF" stroke-width="2"/>
<path d="M979.816 162.405L1018.62 144.338C1021.68 157.725 1019.9 170.925 1013.41 183.804V183.773L1011.54 187.034C1003.32 201.381 990.632 212.465 973.641 220.504C959.717 226.887 946.073 229.704 932.694 228.764C919.311 227.823 907.347 223.358 896.542 215.358C885.736 207.356 877.028 196.521 870.662 182.35C864.281 168.144 861.236 154.472 862.174 141.076C863.114 127.656 867.339 115.672 875.318 104.857C883.303 94.0344 893.883 85.7802 907.099 79.3963C920.284 73.0277 933.214 70.676 945.905 71.3823C958.581 72.0878 970.071 76.0828 980.158 83.1329C990.243 90.1815 998.228 99.8189 1003.87 112.31L1003.88 112.321L1003.88 112.332C1007.04 118.874 1009.11 124.971 1010.31 130.417L915.767 174.696L914.827 175.136L915.301 176.059C919.473 184.172 925.64 189.122 933.515 191.587L933.529 191.591L933.543 191.595C941.438 193.82 950.021 192.813 958.769 188.675C965.549 185.521 970.694 181.61 974.387 176.678C977.909 171.973 979.672 167.21 979.816 162.405ZM958.29 123.78L959.222 123.346L958.763 122.427C955.317 115.524 950.091 110.998 942.845 109.491C935.682 107.763 928.309 108.771 920.529 112.425C912.744 116.08 907.091 121.229 903.64 127.649L903.633 127.662L903.626 127.676C900.395 134.149 900.157 141.132 903.12 148.307L903.519 149.273L904.467 148.832L958.29 123.78Z" stroke="#7362FF" stroke-width="2"/>
<path d="M1153.53 207C1148.65 213.977 1141.91 219.123 1133.22 223.122C1124.55 226.876 1114.93 228.761 1104.1 228.761C1089.97 228.761 1077.53 225.462 1066.74 219.121C1055.94 212.531 1047.26 203.599 1041.16 191.842C1035.05 180.076 1031.98 166.638 1031.98 151.027C1031.98 135.417 1035.05 121.977 1041.16 109.966C1047.27 97.956 1055.72 88.8014 1066.73 82.4643L1066.74 82.4595C1077.52 76.1158 1089.97 72.8153 1104.1 72.8153C1113.76 72.8153 1122.46 74.2329 1129.97 76.8169C1137.45 79.394 1143.74 83.3676 1148.62 88.4906L1150.35 90.3V87.8008V1H1194.07V224.467H1157.83L1155.34 207.428L1154.97 204.933L1153.53 207ZM1139.83 122.895L1139.82 122.889L1139.81 122.883C1132.95 116.002 1124.11 112.33 1113.15 112.33C1102.2 112.33 1093.34 115.751 1086.69 122.908C1080.06 130.05 1076.9 139.378 1076.9 150.55C1076.9 161.733 1080.3 171.295 1086.93 178.43C1093.57 185.572 1102.42 189.247 1113.15 189.247C1123.85 189.247 1132.94 185.825 1139.83 178.681C1146.71 171.543 1150.11 162.211 1150.11 150.55C1150.11 138.875 1146.7 130.025 1139.83 122.895Z" stroke="#7362FF" stroke-width="2"/>
<path d="M1258.18 224.751C1271.34 224.751 1282 214.069 1282 200.892C1282 187.715 1271.34 177.033 1258.18 177.033C1245.03 177.033 1234.37 187.715 1234.37 200.892C1234.37 214.069 1245.03 224.751 1258.18 224.751Z" fill="#1C00FF"/>
</g>
<defs>
<clipPath id="clip0_13_61">
<rect width="1282" height="230" fill="white"/>
</clipPath>
</defs>
</svg>
