<svg width="31" height="30" viewBox="0 0 31 30" fill="none" xmlns="http://www.w3.org/2000/svg">
<path d="M15.5899 11.9199C14.0999 11.9199 12.8899 13.1299 12.8899 14.6199C12.8899 16.1099 14.0999 17.3199 15.5899 17.3199C17.0799 17.3199 18.2899 16.1099 18.2899 14.6199C18.2899 13.1299 17.0799 11.9199 15.5899 11.9199Z" fill="white"/>
<path d="M18.9398 7.65991H12.0998C10.1498 7.65991 8.55981 9.24991 8.55981 11.1999V18.0399C8.55981 19.9899 10.1498 21.5799 12.0998 21.5799H18.9398C20.8898 21.5799 22.4798 19.9899 22.4798 18.0399V11.1999C22.4798 9.24991 20.8898 7.65991 18.9398 7.65991ZM15.5898 18.8399C13.2598 18.8399 11.3698 16.9499 11.3698 14.6199C11.3698 12.2899 13.2598 10.3999 15.5898 10.3999C17.9198 10.3999 19.8098 12.2899 19.8098 14.6199C19.8098 16.9499 17.9198 18.8399 15.5898 18.8399ZM20.0598 11.1199C19.5098 11.1199 19.0498 10.6699 19.0498 10.1099C19.0498 9.54991 19.4998 9.10991 20.0598 9.10991C20.6198 9.10991 21.0698 9.55991 21.0698 10.1099C21.0698 10.6599 20.6198 11.1199 20.0598 11.1199Z" fill="white"/>
<path d="M15.5199 0C7.4799 0 0.899902 6.58 0.899902 14.62C0.899902 22.66 7.4799 29.24 15.5199 29.24C23.5599 29.24 30.1399 22.66 30.1399 14.62C30.1399 6.58 23.5599 0 15.5199 0ZM24.0899 18.04C24.0899 20.88 21.7799 23.19 18.9399 23.19H12.0999C9.2599 23.19 6.9499 20.88 6.9499 18.04V11.2C6.9499 8.36 9.2599 6.05 12.0999 6.05H18.9399C21.7799 6.05 24.0899 8.36 24.0899 11.2V18.04Z" fill="white"/>
</svg>
