<svg width="30" height="30" viewBox="0 0 30 30" fill="none" xmlns="http://www.w3.org/2000/svg">
<path d="M14.62 0.22998C6.58 0.22998 0 6.80998 0 14.85C0 22.89 6.58 29.47 14.62 29.47C22.66 29.47 29.24 22.89 29.24 14.85C29.24 6.80998 22.66 0.22998 14.62 0.22998ZM11.32 21.23H8.49V12.13H11.32V21.23ZM9.9 10.89C8.99 10.89 8.26 10.15 8.26 9.24998C8.26 8.34998 8.99 7.60998 9.9 7.60998C10.81 7.60998 11.54 8.33998 11.54 9.24998C11.54 10.16 10.81 10.89 9.9 10.89ZM21.91 21.23H19.08V16.81C19.08 15.75 19.06 14.4 17.61 14.4C16.16 14.4 15.91 15.55 15.91 16.74V21.24H13.08V12.13H15.79V13.37H15.83C16.21 12.65 17.13 11.9 18.51 11.9C21.37 11.9 21.9 13.78 21.9 16.23V21.22L21.91 21.23Z" fill="white"/>
</svg>
