<svg width="16" height="16" viewBox="0 0 16 16" fill="none" xmlns="http://www.w3.org/2000/svg">
<g clip-path="url(#clip0_377_894)">
<path d="M-0.000237664 7.98657C0.00532562 3.57452 3.60291 -0.0074045 8.02155 1.14948e-05C12.4254 0.00742748 16.0044 3.60233 15.9998 8.01252C15.9951 12.4241 12.3943 16.0097 7.97797 16C3.57324 15.9898 -0.00580095 12.3954 -0.000237664 7.98657ZM1.11288 7.99074C1.10686 11.7887 4.1954 14.8834 7.99513 14.8871C11.787 14.8909 14.8755 11.8118 14.8871 8.01809C14.8982 4.21925 11.8162 1.12307 8.01367 1.11334C4.21627 1.1036 1.11937 4.19051 1.11335 7.9912L1.11288 7.99074Z" fill="#737272"/>
<path d="M7.44359 6.48685C7.44359 5.83239 7.44081 5.17793 7.44499 4.52393C7.44684 4.22915 7.66103 3.99601 7.93965 3.96774C8.21643 3.93993 8.47002 4.11513 8.53771 4.38906C8.55532 4.4609 8.55579 4.5383 8.55579 4.61293C8.55672 5.73645 8.5595 6.85997 8.55254 7.98303C8.55161 8.11837 8.59705 8.18651 8.70878 8.25325C9.43803 8.69079 10.1622 9.13714 10.8896 9.577C11.0662 9.68407 11.2044 9.81524 11.2308 10.0298C11.2582 10.2495 11.1826 10.4317 11.0008 10.5582C10.8136 10.6885 10.6091 10.6996 10.4107 10.587C10.1691 10.4498 9.93455 10.301 9.69719 10.1568C9.06483 9.77168 8.43525 9.38141 7.79872 9.00319C7.54883 8.85441 7.43525 8.65557 7.44035 8.3631C7.45101 7.73784 7.44359 7.11212 7.44359 6.48685Z" fill="#737272"/>
</g>
<defs>
<clipPath id="clip0_377_894">
<rect width="16" height="16" fill="white"/>
</clipPath>
</defs>
</svg>
