<svg width="16" height="17" viewBox="0 0 16 17" fill="none" xmlns="http://www.w3.org/2000/svg">
<g clip-path="url(#clip0_377_897)">
<path d="M12.1534 0H12.4454C12.8109 0.139453 12.9527 0.417031 12.9268 0.804401C12.9168 0.950937 12.9251 1.09924 12.9251 1.26083C13.2309 1.26083 13.5176 1.24224 13.8014 1.26615C14.0622 1.28872 14.333 1.32016 14.5761 1.41224C15.4693 1.75003 15.9979 2.57479 15.9987 3.59435C16.0009 5.96771 15.9996 8.34107 15.9996 10.7144C15.9996 12.0368 16.0022 13.3592 15.9987 14.6811C15.9957 15.7648 15.3577 16.6418 14.3784 16.9194C14.2755 16.9486 14.1717 16.973 14.0683 17H1.93354C1.73327 16.9385 1.52262 16.9008 1.33533 16.811C0.449466 16.3873 0.00393967 15.6639 0.00307457 14.6647C4.67259e-05 11.6995 0.00177692 8.73375 0.00177692 5.76849C0.00177692 5.02695 -0.00298112 4.28586 0.00307457 3.54432C0.0125907 2.43799 0.697749 1.53708 1.735 1.32104C2.10051 1.2449 2.48721 1.27721 2.86439 1.26083C2.93187 1.25773 2.99978 1.26083 3.07591 1.26083C3.07591 1.09172 3.08412 0.947396 3.07418 0.804401C3.04779 0.416589 3.1901 0.139896 3.5556 0.000442708H3.84757C4.21091 0.156719 4.34544 0.442708 4.30867 0.834062C4.29613 0.969531 4.30651 1.10721 4.30651 1.25242H11.6944C11.6944 1.08508 11.6901 0.926146 11.6957 0.767214C11.6996 0.652109 11.7027 0.533906 11.7312 0.423672C11.7887 0.201875 11.9687 0.095625 12.1534 0.000442708V0ZM14.7703 6.62203H1.23973C1.23627 6.67117 1.23151 6.70924 1.23151 6.74687C1.23151 9.39648 1.22935 12.0465 1.23281 14.6961C1.23368 15.327 1.64936 15.7392 2.26877 15.7392C6.09034 15.7396 9.91191 15.7392 13.7335 15.7392C13.8139 15.7392 13.8966 15.7378 13.9753 15.7215C14.474 15.6187 14.7703 15.2185 14.7703 14.6461C14.7712 12.035 14.7703 9.42393 14.7703 6.81284C14.7703 6.75307 14.7703 6.69331 14.7703 6.62203ZM1.23065 5.33818H14.7565C14.7565 4.68076 14.7751 4.03396 14.7495 3.38893C14.7331 2.96924 14.423 2.61331 14.012 2.5562C13.6595 2.5075 13.2953 2.54602 12.9246 2.54602C12.9246 2.72531 12.9264 2.90727 12.9246 3.08878C12.9207 3.49075 12.6638 3.77719 12.3082 3.77852C11.954 3.77984 11.697 3.49253 11.6949 3.09055C11.6936 2.90461 11.6949 2.71823 11.6949 2.53185H4.30564C4.30564 2.74745 4.32597 2.95375 4.29872 3.15385C4.27882 3.29906 4.22432 3.45888 4.13522 3.57044C3.97085 3.77719 3.73727 3.825 3.48769 3.73956C3.24417 3.65589 3.08542 3.42479 3.0772 3.14057C3.07115 2.93826 3.07591 2.73549 3.07591 2.52078C2.76274 2.52078 2.47207 2.5168 2.18096 2.52167C1.69953 2.53008 1.2925 2.89487 1.24795 3.38628C1.21897 3.70458 1.23281 4.02732 1.23065 4.34784C1.22849 4.67323 1.23022 4.99906 1.23022 5.33773L1.23065 5.33818Z" fill="#757575"/>
</g>
<defs>
<clipPath id="clip0_377_897">
<rect width="16" height="17" fill="white"/>
</clipPath>
</defs>
</svg>
